<?xml version="1.0" encoding="utf-8"?>
<!-- Generator: Adobe Illustrator 19.1.0, SVG Export Plug-In . SVG Version: 6.00 Build 0)  -->
<svg version="1.1" id="Layer_1" xmlns="http://www.w3.org/2000/svg" xmlns:xlink="http://www.w3.org/1999/xlink" x="0px" y="0px"
	 viewBox="0 0 224.7 68" style="enable-background:new 0 0 224.7 68;" xml:space="preserve">
<g>
	<polygon points="41.8,43.5 41.8,43.5 41.8,43.5 	"/>
	<path d="M91.7,35.3c-0.9,0.5-1.7,0.9-2.5,1.5c0.2-1.2,0.6-2.5,0.6-3.8c0-1.3-0.5-2.5-0.3-3.9c0.5-1.2,4-3.2,2.5-4.7
		c-1.5-1.5-4.2,0.8-5.1,1.9c-2.9,3.3-5.6,6.7-9,9.6c-0.5,0.4-1.1,0.8-1.5,1.4c-1.3,0.2-2.3-0.1-2.8-1.9c0.8-1.3,1.5-2.5,2.3-3.8
		c0.7-1.1,1.6-2.3,1.8-3.6c0.2-1.6-1.9-1.5-3-1.2c-1.7,0.6-2.3,2-3.1,3.4c-0.9,1.6-1.9,3.2-2.7,4.8c-0.2,0.3-1.1,2.4-1.8,2
		c-0.3-0.1,2.4-8,2.7-8.7c0.2-1.5-2.3-0.8-3-0.5c-1.2,0.5-2,1.5-2.7,2.6c-0.7,1.1-1.4,2.3-2,3.5c-0.6,1.1-1,2.6-1.8,3.5
		c-0.2,0.2-0.6,0.9-0.9,0.6c-0.4-0.3,0.4-2.3,0.5-2.6c0.7-2.1,1.4-4.1,2-6.2c0.2-1.2-1.9-1-2.6-0.8c-1.6,0.4-2.6,2.1-3.2,3.6
		c-0.5,1.5-0.6,3.2-0.8,4.8c-0.1,0.9-0.3,1.9-0.4,2.8c-0.8,1.2-1.8,2.3-2.9,3.1c-2.3,1.5-1.4-2.6-1.2-3.7c0.4-1.9,0.9-3.8,1.1-5.7
		c0.1-0.9,0.2-2-1-2c-0.4,0-0.8,0.3-1.3,0.3c-0.7,0.1-0.7-0.1-1.3-0.5c-1.4-0.9-3.5,0.8-4.6,1.7c-1.5,1.3-2.8,2.9-3.8,4.6
		c-1.5,2.7-4.3,8.3-1.6,11.1c2.8,2.9,7.3-1.1,9-3.3c1.8,4,5.2,1.5,7.6-1.1c0.1,0.5,0.3,1,0.7,1.3c1.1,0.8,2.5-0.2,3.3-0.9
		c1.2-1.1,2.2-2.5,3.1-3.9c0.7-1.3,1-2.9,1.9-4c0,0-0.7,0.9,0,0c0.9-1,0.5,0.8,0.4,1.3c-0.3,1.6-0.9,3.5-0.7,5.2
		c0.3,2.3,2.4,1.3,3.5,0.2c1.5-1.5,2.7-3.4,3.7-5.3c-0.4,3.4,2.9,3.8,5.5,3.1c0.7-0.2,1.3-0.4,1.7-0.8c1,3,7.2,1.2,9.3,0.5
		c1.8-0.6,3.7-1.3,5.4-2.2c1.7-1,1.8-2.3,1.2-4.1C93.4,34.1,92.3,35,91.7,35.3z M46.4,39.6c-0.3,1.5-0.7,3-1.5,4.4
		c-1.1,1.9-3.1,2.2-3.1-0.4c0,0.1,0,0.1,0,0c0-0.3,0-0.1,0,0c0-3.2,2.4-8.7,5.8-9.6C47.2,35.8,46.8,37.7,46.4,39.6z M85.3,35.2
		c-0.1,1-0.1,1.9-0.7,2.8c-0.5,0.8-1.5,1.3-2.5,1.2c-0.8-0.1-1.5-1.2-2.1-1.3c0-0.1,0.1-0.2,0.1-0.4c1.8-1.7,3.6-3.5,5.4-5.2
		C85.7,33.3,85.4,34.1,85.3,35.2z"/>
	<path d="M103.5,29.4C103.3,29.1,102.4,30.1,103.5,29.4L103.5,29.4z"/>
	<path d="M103.3,39.1C103.3,39.1,103.3,39.1,103.3,39.1C103.3,39.1,103.3,39.1,103.3,39.1C103.3,39.1,103.3,39.1,103.3,39.1z"/>
	<path d="M114.2,38.2c-0.2-0.3-1.6-1.3-1.9-1.2c1.6-1.2,3.5-3.2,3-5.4c-0.3-1.4-1.9-3.5-3.5-3.4c-0.7,0-1.6,0.4-1.6,1.2
		c0,0.5,0.7,1,1,1.3c1.1,1.2,0.8,2.6-0.5,3.6c-0.9-1.9-2.1-3.6-2.9-5.5c2.5-1.7,5-3.8,6.2-6.6c1.1-2.7,0.2-5.5-3-5.5
		c-3,0-5.7,2.1-7.3,4.5c-1.7,2.6-1.5,5.6-0.3,8.4c-2.1,1.3-4,2.9-5.6,4.8c-1.3,1.6-2.9,4.3-1.4,6.3c1.3,1.8,4.2,1.7,6.2,1.4
		c2.3-0.4,4.6-1.3,6.5-2.8c0,0.3,1.6,1.8,1.9,1.9c0.8,0.3,1.6-0.3,2.2-0.9C113.9,39.7,114.6,38.9,114.2,38.2z M103.3,39.1
		C103.1,39.1,103.1,39.1,103.3,39.1c-1.9,0.2-3.8-0.3-3.2-2.5c0.5-2,2.3-3.7,3.8-4.9c0.9,2,1.9,3.9,3.3,5.7
		C106.1,38.1,104.8,38.8,103.3,39.1C103.5,39,103.6,39,103.3,39.1z M107.1,23c0.2-1.2,1.4-2.8,2.7-3c0,0-0.1,0,0,0c0.3,0,0.1,0,0,0
		c2.1-0.3,2.1,1.3,1.3,2.8c-0.9,1.6-2.3,2.9-3.6,4.1C107.2,26.9,107.1,23.3,107.1,23z"/>
	<polygon points="109.9,19.9 109.8,19.9 109.9,19.9 	"/>
	<path d="M143.5,46C143.5,46,143.5,46,143.5,46C143.5,45.9,143.5,46,143.5,46z"/>
	<path d="M155.5,51.9C155.5,51.8,155.4,52.6,155.5,51.9L155.5,51.9z"/>
	<path d="M168.6,15C168.6,15,168.6,15.1,168.6,15C168.6,15,168.6,15,168.6,15C168.6,15,168.6,15,168.6,15z"/>
	<path d="M162,33.5C162,33.5,162,33.5,162,33.5C162,33.5,162,33.5,162,33.5z"/>
	<path d="M176.4,38C175.3,38.2,177.1,37.8,176.4,38L176.4,38z"/>
	<path d="M175,30.8c0,0,0.1,0,0.1,0C175.3,30.7,175,30.6,175,30.8z"/>
	<path d="M188.9,35.2C187.9,35.4,189.5,35,188.9,35.2L188.9,35.2z"/>
	<path d="M208.1,7.4C208.1,7.3,208.1,7.3,208.1,7.4C208.1,7.3,208.1,7.4,208.1,7.4C208.1,7.4,208.1,7.4,208.1,7.4z"/>
	<path d="M214.2,24.9C214.2,24.9,214.2,24.9,214.2,24.9C214,24.9,213.8,25,214.2,24.9z"/>
	<path d="M218.5,25.3c-0.6-2-3-0.6-4.3-0.4c0.2,0,0.5-0.1,0,0c-1.1,0.2-2.2,0.8-3.2,1.1c-1.7,0.6-3.5,1.2-5.3,1.6
		c-0.9,0.2-3,0.8-3.8-0.1c-0.5-0.6-0.2-1.9-0.1-2.6c0.2-1.5,0.5-3.1,0.7-4.6c0.9-1.2,1.6-2.7,3.2-2.9c0.8-0.1,1.7-0.1,2.5-0.2
		c2.5-0.2,5.2-0.2,7.6-0.8c0.7-0.2,0.9-0.3,0.9-1c0-0.6-0.1-1.4-0.4-1.9c-0.4-0.9-1.3-0.6-2.2-0.5c-1.3,0.1-2.5,0.4-3.8,0.6
		c-1,0.2-2.6,0.2-3.5,0.7c1.5-2.1,3.1-4.4,3.7-6.9c0.5-1.9,0.1-5.4-2.6-4.8c-2.3,0.5-4,3.4-5,5.3c-1.3,2.4-2.4,5-3.2,7.7
		c-1.3,0.5-4.8,0.3-5.3,1.8c-0.6,1.8,3.6,1,4.5,0.9c-0.5,2.3-0.9,4.5-1,6.9c-1.1,1.3-2.2,2.5-3.4,3.6c-1.3,1.2-4.4,4.4-6.4,3
		c-1.6-1.1-0.6-4.3,0-5.7c0.4-1.1,1-2.4,1.9-3.2c0.7-0.6,2-1.5,1.9-0.1c0,0.8-0.8,1.7-0.6,2.6c0.3,1,1.5,0.5,2.1,0.1
		c1.5-1,3-3.7,2-5.4c-1.2-2.1-4.6-1.2-6.2-0.2c-2.2,1.3-3.8,3.5-4.8,5.8c-0.7,1.6-1.5,3.4-1.5,5.3c-0.2,0.1-0.3,0.3-0.4,0.4
		c-1.6,1.2-6.1,5-7.7,2.2c3.2-1.5,6.5-4.1,7.8-7.5c0.5-1.4,0.5-3.1-1-3.9c-1.5-0.8-3.6-0.2-5,0.7c-2.1,1.2-3.6,3.2-4.7,5.5
		c-1,0.8-2.1,1.5-3.3,2c-0.9,0.4-1.9,0.8-2.8,0.9c-0.8,0.1-1.3,0-2,0.5c0.1-0.6,1-1.4,1.3-1.8c0.5-0.7,1-1.4,1.5-2
		c1.1-1.4,2.1-2.9,3.2-4.3c1.9-2.6,3.6-5.4,4.7-8.5c0.9-2.5,1.2-6.1-2.5-5.4c-2.8,0.5-4.7,2.2-6.2,4.5c-3.4,5-5.3,11.1-6.9,16.9
		c0,0.1-0.1,0.3-0.1,0.4c-1,0.7-2,1.3-3.1,1.8c-0.9,0.4-1.9,0.8-2.8,0.9c-0.8,0.1-1.3,0-2,0.5c0.2-0.9,1.4-1.9,1.9-2.6
		c0.8-1,1.5-2.1,2.2-3.2c1.4-2.1,2.8-4.3,4-6.6c1.1-2.1,4.9-9.8-0.4-9.2c-4.2,0.5-6.9,5.6-8.5,9c-1.9,4.1-3.3,8.5-4.5,13
		c-0.3,1.3-0.7,2.7-1,4.1c-2.8,3.8-7.8,6.5-11.9,8.5c-2.6,1.2-10.5,5.1-12,0.6c-1.6-4.9,3.9-8.9,7.7-10.4c2.1-0.8,4.3-0.9,6.4-1.6
		c2.2-0.7,2.3-2.7,2.3-4.8c-0.5-3.6-8.7-0.3-10.3-3.6c-0.9-1.8,0.3-4.2,1.5-5.5c1.5-1.5,3.6-2.4,5.6-3c2-0.6,4.1-0.8,6.2-0.9
		c1.2,0,2.9-0.1,4,0.5c1.1,0.7,1,2.1,0.3,3.1c-0.6,0.9-2.3,1.6-1.6,3c0.6,1.3,2.5,1.9,3.7,1.1c1.1-0.8,1.6-2.3,2.2-3.5
		c0.8-1.6,1.8-3.6,1.2-5.4c-0.5-1.6-2-2.7-3.5-3.2c-3.6-1.3-7.9-0.5-11.5,0.5c-3.8,1.1-7.5,2.9-10.4,5.7c-2.6,2.5-4.7,6.3-3.5,9.9
		c1.2,3.7,5.5,3.8,8.7,3.1c-4.4,1.1-8.8,3.1-11.9,6.6c-2.6,2.8-4.8,7.4-3.6,11.3c1.2,3.9,5.7,4.4,9.1,4c7.3-0.8,14.6-4.6,20.2-9.6
		c0,0.2-0.1,0.5-0.1,0.7c-0.1,0.6,0,0.1,0,0c-0.3,2.5-0.7,5-1,7.5c-0.3,2.2-0.8,4.4-0.8,6.6c0,1.8,0.1,5.2,2.4,5.6
		c2.2,0.4,4.5-1.3,5.7-2.9c2.6-3.5,3.2-8.6,3.7-12.9c0.5-4.4,1.3-8.9-1-12.9c1.6-0.4,3.1-1,4.6-1.7c0.3-0.1,0.7-0.3,1-0.5
		c-1.3,5.6-2.1,11.3-2.6,17c-0.3,2.5-0.8,9,3.5,8.1c3.6-0.8,5.6-5.1,6.7-8.2c1-2.7,1.2-5.9,1.4-8.7c0.2-3.1,0-6.1-1.7-8.9
		c1.6-0.4,3.1-1,4.6-1.7c0.2-0.1,0.5-0.2,0.7-0.3c-0.3,1.5-0.2,3.3,0.7,4.5c1.1,1.6,3.1,1.7,4.8,1.3c2.8-0.6,5.4-2.3,7.7-4.2
		c1.1,1.5,3,1.8,4.9,1.4c3.8-0.8,6.9-4.3,9.3-7.3c0.1,1.1,0.4,2.1,0.9,3c1.1,1.6,3,1.4,4.6,1c2-0.5,3.9-1,5.9-1.6
		c1.3-0.4,2.6-0.7,3.9-1c1.2-0.3,2.8-0.5,3.9-1C218.4,27.7,218.8,26.3,218.5,25.3z M205.5,8.8c0.3-0.7,0.8-1.9,1.5-2.4
		c0.8-0.5,1.2,0,1.1,0.9c0,0,0,0,0,0c0,0.2,0,0.1,0,0c-0.2,1.3-1.1,2.7-1.7,3.9c-0.4,0.8-0.9,1.6-1.4,2.3c-0.2,0.3-0.3,0.6-0.5,0.8
		c-0.4,0.5-0.6,0.4-1.3,0.5C203.9,12.8,204.5,10.8,205.5,8.8z M150.2,44.6c-0.2,1.7-0.3,3.4-0.5,5.1c-0.3,2.8-0.8,5.6-1.3,8.4
		c-0.2,0.9-1.8,4.9-2.7,3.2c-0.5-1-0.1-3,0.1-4.1c0.4-3.5,0.9-6.9,1.4-10.4c0.2-1.1,0.3-2.3,0.4-3.4c0.2-1.2,0.4-2.5,0.7-3.7
		c0.1-0.3,0.4-3.1,0.8-3.2c0.9-0.2,1.3,3,1.3,3.4C150.5,41.4,150.4,43,150.2,44.6z M155.4,18.5c0.4-0.7,1.9-3.7,3.2-2.3
		c0.8,0.9-0.6,3.1-0.9,3.8c-2,3.8-4.5,7.2-6.8,10.8C151.8,26.5,153.3,22.5,155.4,18.5z M163.3,40.3c-0.1,1.4-0.1,2.9-0.2,4.3
		c-0.2,2.4-0.7,4.9-1.1,7.3c-0.1,0.8-1.1,5.2-2.5,4.1c-0.7-0.5-0.2-3.1-0.1-4c0.3-3,0.7-6,1-9c0.1-1.1,0.2-2.2,0.4-3.3
		c0.2-1.2,0.5-2.5,0.7-3.7c0.1-0.3,0.2-2.4,0.7-2.5c0.1,0,0,0,0,0c0.7-0.1,1.3,2.3,1.3,2.7C163.5,37.6,163.4,38.9,163.3,40.3z
		 M168.6,15.1C168.4,15.4,168.1,16,168.6,15.1c0.2-0.4,0.2-0.3,0.1-0.1c0.3-0.6,0.8-1.5,1.4-1.9c0.5-0.3,1.8-0.8,2.3-0.3
		c0.9,1-0.8,3.5-1.3,4.4c-2.2,3.8-5,7.1-7.3,10.8C164.9,23.4,166.4,19.2,168.6,15.1z M175,30.8c0.2-1.4,0.7-2.7,1.4-3.9
		c0.5-0.8,2.3-2.8,3.3-1.9c1.9,1.7-3.1,5.3-4.6,5.8C175.1,30.8,175,30.8,175,30.8z"/>
	<path d="M50.6,14.1c-2.5-8-13.6-8.3-20.2-6.5c-8.1,2.2-14.6,8.5-18.9,15.6c-4.5,7.5-6.7,16.4-6.3,25.2c0.2,3.7,0.7,8.3,3.4,11.1
		c2.9,2.9,7.3,2,10.6,0.2c4.1-2.4,7.1-6.5,8.9-10.8c1.7-4,2.3-8.5,3.2-12.8c5.1-1.1,10.1-3.4,14-7C49.2,25.2,52.3,19.5,50.6,14.1z
		 M43.7,23.6C43.4,24.1,43.5,23.9,43.7,23.6c-2.3,3.9-6.8,6-11.1,7l-1,0.2l0.9-3.1l2.8-6.9c0-0.1,0-0.1,0.1-0.2
		c0.1-0.5,0-0.9-0.4-1.1c-2.6-1.4-5.6,1.7-6.7,3.7c-1.4,2.4-2,5.1-2.4,7.8l-0.1,0.6l-0.6-0.1c-1.6-0.2-3-1-4.4-1.6
		c-1.4-0.4-1.4,3.4-0.9,4.1c1,1.3,3.5,1.8,4.9,2.2l0.5,0.2l-0.3,1.8c-0.5,3.1-1.2,6.1-2.1,9.1c-0.9,2.8-2.2,6-4.7,7.8
		c-1,0.7-2.5,1.2-3.7,0.7c-1.6-0.6-2.1-2.4-2.4-3.9c-0.6-3.2-0.2-6.7,0.2-9.9c0.8-6.6,2.3-13,5.8-18.7C21,17.9,26,13,32.5,12.3
		c3.3-0.4,7.1-0.3,9.9,1.6C45.6,16.1,45.5,20.4,43.7,23.6C43.9,23.3,44,23.1,43.7,23.6z"/>
	<path d="M50.6,14.1C51.1,15.7,50.1,12.5,50.6,14.1L50.6,14.1z"/>
	<path d="M43.7,23.6C43.7,23.6,43.7,23.6,43.7,23.6C43.7,23.6,43.7,23.6,43.7,23.6C43.7,23.6,43.7,23.6,43.7,23.6z"/>
	<polygon points="210.4,32.5 211.4,32.3 211.3,35.3 212,35.1 212.1,32.1 213.2,31.9 213.2,31.3 210.4,31.9 	"/>
	<path d="M216.3,30.7l-0.7,1.9c-0.1,0.3-0.2,0.6-0.3,0.9l0,0c-0.1-0.3-0.1-0.6-0.2-0.9l-0.5-1.6l-1,0.2l-0.4,3.6l0.6-0.1l0.2-2.1
		c0-0.3,0.1-0.7,0.1-1l0,0c0.1,0.3,0.1,0.7,0.2,1l0.5,1.9l0.7-0.1l0.7-2.1c0.1-0.3,0.2-0.8,0.3-1.1l0,0c0,0.4,0,0.7,0,1l0,2.1
		l0.7-0.1l-0.1-3.5L216.3,30.7z"/>
</g>
</svg>
